HIERARCHY
ROOT Hips
{
	OFFSET -3.958830 18.904000 13.208200
	CHANNELS 6 Xposition Yposition Zposition Zrotation Yrotation Xrotation 
	JOINT LHipJoint
	{
		OFFSET 0.000000 0.000000 0.000000
		CHANNELS 3 Zrotation Yrotation Xrotation
		JOINT LeftUpLeg
		{
			OFFSET 1.800000 -1.400000 0.085000
			CHANNELS 3 Zrotation Yrotation Xrotation
			JOINT LeftLeg
			{
				OFFSET 2.215000 -6.000000 0.000000
				CHANNELS 3 Zrotation Yrotation Xrotation
				JOINT LeftFoot
				{
					OFFSET 2.500000 -6.900000 0.000000
					CHANNELS 3 Zrotation Yrotation Xrotation
					JOINT LeftToeBase
					{
						OFFSET 0.200000 -0.500000 1.950000
						CHANNELS 3 Zrotation Yrotation Xrotation
						End Site
						{
							OFFSET 0.000000 0.000000 0.000000
						}
					}
				}
			}
		}
	}
	JOINT RHipJoint
	{
		OFFSET 0.000000 0.000000 0.000000
		CHANNELS 3 Zrotation Yrotation Xrotation
		JOINT RightUpLeg
		{
			OFFSET -1.800000 -1.400000 0.085000
			CHANNELS 3 Zrotation Yrotation Xrotation
			JOINT RightLeg
			{
				OFFSET -2.215000 -6.000000 0.000000
				CHANNELS 3 Zrotation Yrotation Xrotation
				JOINT RightFoot
				{
					OFFSET -2.500000 -6.900000 0.000000
					CHANNELS 3 Zrotation Yrotation Xrotation
					JOINT RightToeBase
					{
						OFFSET -0.200000 -0.500000 1.950000
						CHANNELS 3 Zrotation Yrotation Xrotation
						End Site
						{
							OFFSET 0.000000 0.000000 0.000000
						}
					}
				}
			}
		}
	}
	JOINT LowerBack
	{
		OFFSET 0.000000 0.000000 0.000000
		CHANNELS 3 Zrotation Yrotation Xrotation
		JOINT Spine
		{
			OFFSET -0.087000 1.940000 -0.288900
			CHANNELS 3 Zrotation Yrotation Xrotation
			JOINT Spine1
			{
				OFFSET 0.000000 1.950000 0.060000
				CHANNELS 3 Zrotation Yrotation Xrotation
				JOINT Neck
				{
					OFFSET 0.000000 0.000000 0.000000
					CHANNELS 3 Zrotation Yrotation Xrotation
					JOINT Neck1
					{
						OFFSET 0.000000 1.600000 0.340000
						CHANNELS 3 Zrotation Yrotation Xrotation
						JOINT Head
						{
							OFFSET 0.000000 1.667000 -0.240000
							CHANNELS 3 Zrotation Yrotation Xrotation
							End Site
							{
								OFFSET 0.000000 0.000000 0.000000
							}
						}
					}
				}
				JOINT LeftShoulder
				{
					OFFSET 0.000000 0.000000 0.000000
					CHANNELS 3 Zrotation Yrotation Xrotation
					JOINT LeftArm
					{
						OFFSET 2.700000 1.550000 -0.730000
						CHANNELS 3 Zrotation Yrotation Xrotation
						JOINT LeftForeArm
						{
							OFFSET 5.450000 0.000000 0.000000
							CHANNELS 3 Zrotation Yrotation Xrotation
							JOINT LeftHand
							{
								OFFSET 3.450000 0.000000 0.000000
								CHANNELS 3 Zrotation Yrotation Xrotation
								JOINT LeftHandIndex1
								{
									OFFSET 0.750000 0.000000 0.000000
									CHANNELS 3 Zrotation Yrotation Xrotation
									End Site
									{
										OFFSET 0.000000 0.000000 0.000000
									}
								}
							}
						}
					}
				}
				JOINT RightShoulder
				{
					OFFSET 0.000000 0.000000 0.000000
					CHANNELS 3 Zrotation Yrotation Xrotation
					JOINT RightArm
					{
						OFFSET -2.700000 1.550000 -0.730000
						CHANNELS 3 Zrotation Yrotation Xrotation
						JOINT RightForeArm
						{
							OFFSET -5.450000 0.000000 0.000000
							CHANNELS 3 Zrotation Yrotation Xrotation
							JOINT RightHand
							{
								OFFSET -3.450000 0.000000 0.000000
								CHANNELS 3 Zrotation Yrotation Xrotation
								JOINT RightHandIndex1
								{
									OFFSET -0.750000 0.000000 0.000000
									CHANNELS 3 Zrotation Yrotation Xrotation
									End Site
									{
										OFFSET 0.000000 0.000000 0.000000
									}
								}
							}
						}
					}
				}
			}
		}
	}
}
MOTION
Frames: 4
Frame Time: 0.016667
-1.199240 16.686010 -9.536590 10.060392 17.219039 3.988510 -15.792274 10.504868 5.702711 34.673665 -5.949220 -29.711313 12.728637 30.715219 116.324624 3.068813 19.197217 -1.110713 0.382180 0.519940 -0.353910 18.265750 -9.302454 1.995513 -3.112155 1.263983 -12.594729 12.297297 -5.014759 8.385827 -0.245741 -3.524897 3.075912 0.480450 0.874700 0.285930 -2.699008 -0.435641 -8.759960 -5.033248 5.659896 13.849501 -5.587950 11.753375 16.428538 1.918969 -4.487583 -7.950730 -10.548365 -1.723365 40.510978 10.923700 -12.205970 -15.100100 11.650262 -29.101561 4.766403 -40.931024 -56.481926 11.721782 74.837431 -43.674526 -44.742440 -3.729870 2.308856 0.167800 0.298960 -0.150970 0.428740 -15.388982 36.379432 -2.326631 16.453130 45.706792 0.291527 -83.080673 72.131562 -59.773200 1.099904 1.444671 -0.163650 0.684720 0.269900 0.345330 
-1.231800 16.677240 -9.538050 10.017199 16.019761 4.250659 -15.877175 10.285213 6.059669 35.362449 -5.031884 -31.832493 10.434557 34.282799 115.534915 3.233664 19.723440 -1.219506 0.377190 0.510510 -0.340500 18.242649 -9.115893 1.903345 -2.762334 1.400141 -12.720212 11.974686 -4.928592 8.542069 -0.244850 -3.439535 3.098998 0.448100 0.832810 0.295280 -2.529066 -0.531265 -8.879420 -6.145574 6.280222 14.505671 -5.780130 12.480023 16.211234 2.308819 -4.477653 -8.480074 -10.667043 -1.836574 40.604357 11.156980 -12.138560 -15.261200 10.781989 -29.989768 5.129017 -39.903298 -54.912100 9.615275 77.564906 -44.967770 -47.619873 -3.731789 2.297974 0.177750 0.271070 -0.122360 0.414910 -15.346128 37.758257 -2.006706 14.103923 43.889872 -1.716855 -86.373044 73.174456 -63.510689 1.197339 1.694363 -0.134980 0.643370 0.257950 0.343770 
-1.286060 16.668670 -9.523890 10.030454 14.813380 4.347395 -16.018226 9.992645 6.607866 36.200346 -3.610574 -35.306956 6.423849 39.237266 113.182741 3.441491 20.401968 -1.360252 0.386850 0.510590 -0.289890 18.190339 -8.800119 1.776498 -2.358912 1.492729 -12.349425 11.883289 -4.846909 8.418624 -0.281346 -3.334592 3.131024 0.401410 0.741240 0.294880 -2.233111 -0.810133 -9.081562 -8.490346 7.204806 15.698094 -5.530516 13.399639 16.192357 2.681117 -4.041687 -9.671913 -10.220122 -2.048357 41.585440 11.830450 -11.628940 -16.287180 9.439759 -30.622228 5.539820 -39.172183 -52.576098 7.079745 81.646636 -49.201672 -53.716544 -3.689079 2.160427 0.233310 0.202360 -0.050040 0.397390 -14.691860 39.289338 -0.321429 12.222117 41.410662 -3.247632 -94.970311 71.887211 -72.621926 1.576161 1.817717 -0.101230 0.594270 0.220680 0.323050 
-1.352380 16.677390 -9.510820 10.013979 13.069572 4.188642 -16.110822 9.782890 7.011966 36.599578 -2.597362 -38.028605 2.288238 42.719602 109.655414 3.529426 20.711856 -1.459934 0.414260 0.535520 -0.213080 18.154706 -8.580831 1.694265 -1.962040 1.557816 -11.992843 11.946439 -4.844863 8.425736 -0.345198 -3.228508 3.148132 0.364910 0.626120 0.293720 -2.048532 -1.003762 -9.226936 -11.064075 8.204512 17.354308 -5.919608 14.362610 15.427270 3.145429 -3.516112 -10.496034 -9.538613 -1.729751 43.274092 13.283000 -10.383670 -18.858260 7.660958 -31.737318 5.790520 -36.950120 -49.515790 3.773451 84.364820 -52.980500 -58.399665 -3.628387 1.994228 0.327110 0.108870 0.055850 0.366580 -13.843531 40.962453 0.272256 10.718241 39.443126 -5.071976 -98.844526 72.558964 -77.940610 1.848013 2.066459 -0.068330 0.558540 0.182700 0.290930 
